<svg width="37" height="36" viewBox="0 0 37 36" fill="none" xmlns="http://www.w3.org/2000/svg">
<path d="M7.13008 9.76882H29.7121C30.3649 9.76882 30.8427 10.3841 30.681 11.0165L28.7801 18.4506C28.4405 19.7785 27.2442 20.7074 25.8736 20.7074H9.02537M0 3.49957H4.65214C5.63535 3.49957 6.47274 4.21422 6.62728 5.18521L9.6467 24.1562C9.80125 25.1272 10.6386 25.8418 11.6218 25.8418H28.203" stroke="black" stroke-width="1.5"/>
<path d="M15.7689 32.2656C15.7689 33.5678 14.7584 34.5758 13.5695 34.5758C12.3807 34.5758 11.3701 33.5678 11.3701 32.2656C11.3701 30.9634 12.3807 29.9554 13.5695 29.9554C14.7584 29.9554 15.7689 30.9634 15.7689 32.2656Z" stroke="black" stroke-width="1.5"/>
<path d="M28.746 32.2656C28.746 33.5678 27.7354 34.5758 26.5466 34.5758C25.3577 34.5758 24.3472 33.5678 24.3472 32.2656C24.3472 30.9634 25.3577 29.9554 26.5466 29.9554C27.7354 29.9554 28.746 30.9634 28.746 32.2656Z" stroke="black" stroke-width="1.5"/>
<circle cx="30" cy="7" r="7" fill="#E8AA31"/>
<path d="M29.672 10.064C29.2293 10.064 28.8347 9.952 28.488 9.728C28.1467 9.49867 27.8773 9.168 27.68 8.736C27.4827 8.304 27.384 7.792 27.384 7.2C27.384 6.608 27.4827 6.096 27.68 5.664C27.8773 5.232 28.1467 4.904 28.488 4.68C28.8347 4.45067 29.2293 4.336 29.672 4.336C30.1093 4.336 30.4987 4.45067 30.84 4.68C31.1867 4.904 31.4587 5.232 31.656 5.664C31.8533 6.096 31.952 6.608 31.952 7.2C31.952 7.792 31.8533 8.304 31.656 8.736C31.4587 9.168 31.1867 9.49867 30.84 9.728C30.4987 9.952 30.1093 10.064 29.672 10.064ZM29.672 9.352C30.12 9.352 30.4773 9.168 30.744 8.8C31.016 8.432 31.152 7.89867 31.152 7.2C31.152 6.50133 31.016 5.968 30.744 5.6C30.4773 5.232 30.12 5.048 29.672 5.048C29.2187 5.048 28.856 5.232 28.584 5.6C28.3173 5.968 28.184 6.50133 28.184 7.2C28.184 7.89867 28.3173 8.432 28.584 8.8C28.856 9.168 29.2187 9.352 29.672 9.352Z" fill="white"/>
</svg>
