<svg width="21" height="19" viewBox="0 0 21 19" fill="none" xmlns="http://www.w3.org/2000/svg">
<path d="M5.24322 4.42146H18.6074C19.2728 4.42146 19.7526 5.05921 19.5682 5.69857L18.8403 8.22255C18.4699 9.50688 17.2944 10.3912 15.9578 10.3912H6.40988M0.854248 1H3.09564C4.06389 1 4.89309 1.6936 5.06417 2.64661L6.6619 11.5467C6.83298 12.4998 7.66218 13.1934 8.63043 13.1934H18.2148" stroke="white" stroke-width="1.5"/>
<path d="M10.2724 16.6992C10.2724 17.1496 9.85553 17.6193 9.20688 17.6193C8.55823 17.6193 8.14136 17.1496 8.14136 16.6992C8.14136 16.2487 8.55823 15.7791 9.20688 15.7791C9.85553 15.7791 10.2724 16.2487 10.2724 16.6992Z" stroke="white" stroke-width="1.5"/>
<path d="M18.2609 16.6992C18.2609 17.1496 17.8441 17.6193 17.1954 17.6193C16.5468 17.6193 16.1299 17.1496 16.1299 16.6992C16.1299 16.2487 16.5468 15.7791 17.1954 15.7791C17.8441 15.7791 18.2609 16.2487 18.2609 16.6992Z" stroke="white" stroke-width="1.5"/>
</svg>
