<svg width="109" height="25" viewBox="0 0 109 25" fill="none" xmlns="http://www.w3.org/2000/svg">
<path fill-rule="evenodd" clip-rule="evenodd" d="M54.9819 21.9852C54.9819 21.9852 55.6275 21.6723 56.7598 21.2512C57.3432 21.5303 58.6218 22.1115 59.8599 22.4692C61.5357 22.9532 62.6527 22.8787 64.2167 22.8787C65.7804 22.8787 68.0147 22.6181 68.0147 22.6181C68.0147 22.6181 67.6796 21.3895 67.6423 20.4958C67.6052 19.602 67.6052 19.4531 67.6052 19.4531C67.6052 19.4531 67.2699 20.7192 67.3444 21.3895C67.4189 22.0596 67.4189 22.2831 67.4189 22.2831C67.4189 22.2831 64.4773 22.581 62.3921 22.3575C60.3068 22.1341 59.0408 21.9105 58.1471 21.6128C57.6547 21.4486 57.185 21.3072 56.8624 21.2132C58.4421 20.6316 60.9143 19.861 63.8813 19.416C69.0943 18.6339 68.0518 18.8946 68.0518 18.8946C68.0518 18.8946 68.1636 18.6712 68.8337 18.5969C69.504 18.5223 76.3554 18.1872 78.4781 18.3361C80.6005 18.4849 86.4465 18.783 87.303 19.3415C88.1594 19.9 88.4945 20.4585 88.2339 21.8362C87.9732 23.214 87.452 24.5546 86.9678 24.2566C86.4838 23.9587 84.8455 22.6928 83.2815 22.4692C81.7176 22.2459 80.0046 22.2831 79.2972 22.4692C78.5897 22.6555 77.3981 23.4002 76.8396 23.2141C76.2811 23.0279 75.164 21.9852 74.2704 22.3576C73.3767 22.73 73.3394 22.8416 72.9298 23.3629C72.5203 23.8843 71.9616 24.4801 71.5148 23.9216C71.0679 23.3629 70.2488 23.1023 69.5412 23.065C68.8338 23.0279 68.2008 23.2513 68.0147 23.4374C67.8284 23.6237 67.5678 23.9959 67.5678 23.9959C67.5678 23.9959 66.4135 23.6982 65.0729 23.8471C63.7325 23.9959 61.4239 24.1077 59.8599 23.8098C58.296 23.5119 54.9819 21.9852 54.9819 21.9852ZM69.0572 22.432C69.0572 22.432 70.5468 22.1713 71.1054 22.5808C71.6639 22.9905 71.7755 23.3256 72.7809 22.5065C73.7864 21.6872 74.4192 21.0914 75.5364 21.6872C76.6535 22.2831 77.1749 22.6554 78.2547 22.0968C79.3345 21.5383 81.6805 20.9425 83.6539 21.7617C85.6274 22.5808 87.1543 23.8842 87.452 23.065C87.7499 22.2457 87.8989 21.352 86.3722 21.0171C84.8455 20.6819 82.5742 20.3095 80.4889 20.6446C78.4035 20.9798 78.0313 21.9478 77.1749 21.6872C76.3183 21.4265 75.3876 20.6447 74.3449 21.0541C73.3022 21.4638 72.4085 22.7299 71.5521 22.3202C70.6957 21.9107 70.0999 21.5383 69.5787 21.7989C69.0572 22.0596 69.0572 22.432 69.0572 22.432Z" fill="white"/>
<path d="M0.872434 0.196498V5.73386H1.12751C1.14721 5.41644 1.19629 5.09562 1.27816 4.77498C1.35661 4.45094 1.458 4.14017 1.58572 3.84228C1.71003 3.54762 1.85405 3.27946 2.01759 3.0371C2.17809 2.79832 2.35471 2.60504 2.54154 2.45439C2.67893 2.34011 2.85555 2.23192 3.0748 2.12731C3.29405 2.02252 3.55594 1.93744 3.86027 1.87205C4.16801 1.80327 4.51821 1.7705 4.91731 1.76727H9.08022L0.32251 13.824L0.361738 13.9418H13.0273V7.57959H12.772C12.7523 7.93981 12.7162 8.30612 12.6638 8.67602C12.6083 9.04592 12.5331 9.40597 12.4349 9.75598C12.3334 10.1062 12.2056 10.4302 12.0487 10.7313C11.8916 11.0292 11.7017 11.2877 11.4759 11.507C11.1912 11.7721 10.8901 11.9652 10.5759 12.0897C10.2585 12.214 9.94433 12.2924 9.62674 12.3252C9.31273 12.3612 9.01162 12.3741 8.72681 12.3709H4.4068L13.1254 0.31419L13.0273 0.196498H0.872434ZM16.9742 11.7427C16.9774 11.9028 16.9709 12.0665 16.9514 12.2367C16.9349 12.4069 16.8891 12.5771 16.8205 12.7408C16.7517 12.9045 16.6371 13.0582 16.4834 13.1958C16.3359 13.3167 16.1726 13.4118 15.9858 13.474C15.8027 13.5395 15.6128 13.5852 15.4165 13.6113C15.22 13.6375 15.0335 13.657 14.8535 13.667L14.5198 13.6866V13.9418H28.3043V7.97223H28.0491L27.9903 8.58126C27.9608 8.90513 27.9149 9.22594 27.8562 9.55303C27.7938 9.87707 27.6957 10.1913 27.5551 10.4956C27.4175 10.8033 27.2147 11.0848 26.9496 11.3499C26.8677 11.4349 26.7467 11.5365 26.5896 11.6508C26.4323 11.7654 26.2329 11.8768 25.9873 11.9847C25.7419 12.0961 25.4473 12.1876 25.1037 12.2598C24.7599 12.3317 24.3608 12.3677 23.9059 12.3709H19.4091V2.39563C19.4058 2.28099 19.4123 2.13716 19.4322 1.96699C19.4485 1.79682 19.4941 1.62003 19.5629 1.43678C19.6351 1.25335 19.7462 1.08999 19.9 0.94257C20.0408 0.818255 20.2044 0.726533 20.3909 0.664555C20.5809 0.598995 20.7738 0.553148 20.9735 0.526816C21.1699 0.500843 21.3565 0.481128 21.5299 0.471276L21.8638 0.451754V0.196498H14.5198V0.451754L14.8535 0.471276C15.0271 0.481128 15.2135 0.500843 15.4133 0.526816C15.6094 0.553148 15.8027 0.598995 15.9924 0.664555C16.179 0.726533 16.3428 0.818255 16.4834 0.94257C16.6371 1.08999 16.7517 1.25335 16.8205 1.43678C16.8891 1.62003 16.9349 1.79682 16.9514 1.96699C16.9709 2.13716 16.9774 2.28099 16.9742 2.39563V11.7427ZM35.5502 0L31.2694 10.3288C31.1256 10.6658 30.9946 10.9538 30.8768 11.1895C30.7589 11.4251 30.6575 11.6216 30.5692 11.7785C30.4807 11.9324 30.4055 12.0569 30.3468 12.1549C30.2844 12.2598 30.1961 12.3874 30.0881 12.5314C29.9801 12.6752 29.8427 12.8226 29.6757 12.9731C29.512 13.1205 29.3159 13.2547 29.0834 13.3726C28.8543 13.4903 28.5891 13.5753 28.2848 13.6278L27.9117 13.6866V13.9418H34.9613V13.6866L34.4703 13.6473C34.2773 13.6343 34.071 13.6015 33.8517 13.5492C33.6325 13.4969 33.4263 13.415 33.2298 13.307C33.0337 13.199 32.8699 13.0582 32.7424 12.8814C32.6374 12.7343 32.5656 12.5609 32.5231 12.358C32.4837 12.1583 32.4705 11.9519 32.4904 11.7395C32.5065 11.5301 32.5523 11.3336 32.6245 11.1535L33.3708 9.32734H38.3976L39.2813 11.4874C39.3336 11.6083 39.3762 11.7395 39.4154 11.8833C39.4546 12.0305 39.4742 12.1715 39.4776 12.3121C39.4742 12.6034 39.4187 12.8357 39.3074 13.0059C39.1994 13.1793 39.0586 13.307 38.8886 13.3921C38.7999 13.4444 38.6921 13.4869 38.5678 13.5196C38.4433 13.5524 38.293 13.582 38.1096 13.6047C37.9263 13.6278 37.7005 13.6473 37.4355 13.667L37.1409 13.6866V13.9418H44.8385V13.6866L44.5241 13.667C44.2918 13.6538 44.0625 13.6146 43.8368 13.5492C43.6111 13.4868 43.4048 13.405 43.2151 13.307C43.022 13.2088 42.8647 13.0974 42.7372 12.9799C42.6227 12.8653 42.5113 12.7146 42.4067 12.5314C42.2987 12.3449 42.1808 12.0993 42.0466 11.7918C41.9157 11.4874 41.752 11.098 41.559 10.6233L37.2195 0H35.5502ZM37.9068 7.95271H33.8616L35.8646 3.12218H35.9038L37.9068 7.95271ZM50.7687 1.76727H52.2218C52.3362 1.76405 52.4804 1.7705 52.6538 1.78375C52.8272 1.79683 53.0137 1.82298 53.2166 1.86884C53.4196 1.91129 53.6224 1.9799 53.8253 2.07179C54.0315 2.16673 54.2214 2.29425 54.4014 2.45439C54.5651 2.60504 54.7123 2.80476 54.8465 3.0568C54.9773 3.30865 55.0953 3.58701 55.1933 3.89135C55.2949 4.19891 55.3766 4.51006 55.4389 4.82407C55.5009 5.13826 55.5403 5.43597 55.56 5.71433H55.8152V0.196498H43.2873V5.71433H43.5425C43.562 5.43597 43.6045 5.13826 43.6668 4.82407C43.7258 4.51006 43.8074 4.19891 43.9088 3.89135C44.0072 3.58701 44.1249 3.30865 44.2592 3.0568C44.3901 2.80476 44.5374 2.60504 44.7009 2.45439C44.881 2.29425 45.0708 2.16673 45.2768 2.07179C45.48 1.9799 45.6829 1.91129 45.8859 1.86884C46.0886 1.82298 46.2753 1.79683 46.4487 1.78375C46.6221 1.7705 46.7661 1.76405 46.8807 1.76727H48.3338V11.7427C48.337 11.8571 48.3306 12.0012 48.3107 12.1715C48.2944 12.3417 48.2487 12.5183 48.1799 12.7016C48.1113 12.8814 47.9967 13.0483 47.8428 13.1958C47.702 13.3167 47.5385 13.4118 47.352 13.474C47.162 13.5395 46.969 13.582 46.7725 13.6113C46.573 13.6375 46.3863 13.6538 46.2129 13.667L45.8791 13.6866V13.9418H53.2231V13.6866L52.8894 13.667C52.7158 13.6538 52.5293 13.6375 52.333 13.6113C52.1335 13.582 51.9402 13.5395 51.7505 13.474C51.5638 13.4118 51.4005 13.3167 51.2595 13.1958C51.1058 13.0483 50.9944 12.8814 50.9224 12.7016C50.8538 12.5183 50.8079 12.3417 50.7914 12.1715C50.7719 12.0012 50.7655 11.8571 50.7687 11.7427V1.76727ZM75.7856 0.196498H69.8946L66.2225 9.52383H66.1638L62.4917 0.196498H56.3652V0.451754L56.6991 0.471276C56.8725 0.481128 57.0589 0.500843 57.2586 0.526816C57.4548 0.553148 57.6481 0.598995 57.8378 0.664555C58.0244 0.726533 58.1881 0.818255 58.3288 0.94257C58.4824 1.08999 58.5971 1.25335 58.6659 1.43678C58.7345 1.62003 58.7803 1.79682 58.7968 1.96699C58.8163 2.13716 58.8228 2.28099 58.8196 2.39563V11.3499C58.8228 11.5005 58.8131 11.6836 58.7936 11.8996C58.7739 12.1156 58.728 12.3349 58.6562 12.5543C58.5874 12.7736 58.476 12.96 58.3288 13.1173C58.2012 13.2416 58.0375 13.343 57.8446 13.4216C57.6513 13.5001 57.4516 13.559 57.2488 13.5983C57.0426 13.6375 56.8594 13.6604 56.6991 13.667L56.3652 13.6866V13.9418H62.9827V13.6866L62.6488 13.667C62.4884 13.6604 62.3052 13.6375 62.099 13.5983C61.8961 13.559 61.6965 13.5001 61.5032 13.4216C61.3103 13.343 61.1466 13.2416 61.0191 13.1173C60.9012 12.996 60.8095 12.8554 60.7439 12.6917C60.6753 12.5281 60.6264 12.3612 60.5969 12.1876C60.5673 12.0175 60.5478 11.8571 60.5379 11.7099C60.5313 11.5593 60.5281 11.4416 60.5281 11.3499V2.10116H60.587L65.2604 13.9418H66.1638L70.8372 2.10116H70.8961V11.7427C70.8994 11.8571 70.8929 12.0012 70.8732 12.1715C70.8569 12.3417 70.8143 12.5183 70.7423 12.7016C70.6735 12.8814 70.559 13.0483 70.4052 13.1958C70.2645 13.3167 70.1008 13.4118 69.9144 13.474C69.7245 13.5395 69.5314 13.582 69.3351 13.6113C69.1353 13.6375 68.9489 13.6538 68.7753 13.667L68.4416 13.6866V13.9418H75.7856V13.6866L75.4517 13.667C75.2783 13.6538 75.0918 13.6375 74.8953 13.6113C74.6956 13.582 74.5027 13.5395 74.3162 13.474C74.1262 13.4118 73.9626 13.3167 73.8218 13.1958C73.668 13.0483 73.5569 12.8814 73.4847 12.7016C73.4163 12.5183 73.3702 12.3417 73.354 12.1715C73.3376 12.0012 73.3276 11.8571 73.3312 11.7427V2.39563C73.3276 2.28099 73.3376 2.13716 73.354 1.96699C73.3702 1.79682 73.4163 1.62003 73.4847 1.43678C73.5569 1.25335 73.668 1.08999 73.8218 0.94257C73.9626 0.818255 74.1262 0.726533 74.3162 0.664555C74.5027 0.598995 74.6956 0.553148 74.8953 0.526816C75.0918 0.500843 75.2783 0.481128 75.4517 0.471276L75.7856 0.451754V0.196498ZM82.9921 0L78.7113 10.3288C78.5675 10.6658 78.4365 10.9538 78.3186 11.1895C78.2008 11.4251 78.0994 11.6216 78.0111 11.7785C77.9228 11.9324 77.8474 12.0569 77.7886 12.1549C77.7263 12.2598 77.638 12.3874 77.5299 12.5314C77.4219 12.6752 77.2845 12.8226 77.1176 12.9731C76.9539 13.1205 76.7577 13.2547 76.5252 13.3726C76.2961 13.4903 76.0312 13.5753 75.7269 13.6278L75.3535 13.6866V13.9418H82.4031V13.6866L81.9121 13.6473C81.7192 13.6343 81.5128 13.6015 81.2936 13.5492C81.0743 13.4969 80.8682 13.415 80.6717 13.307C80.4755 13.199 80.3118 13.0582 80.1843 12.8814C80.0793 12.7343 80.0075 12.5609 79.965 12.358C79.9256 12.1583 79.9123 11.9519 79.9322 11.7395C79.9485 11.5301 79.9942 11.3336 80.0664 11.1535L80.8126 9.32734H85.8395L86.7231 11.4874C86.7754 11.6083 86.818 11.7395 86.8573 11.8833C86.8965 12.0305 86.9162 12.1715 86.9194 12.3121C86.9162 12.6034 86.8605 12.8357 86.7493 13.0059C86.6413 13.1793 86.5005 13.307 86.3305 13.3921C86.2418 13.4444 86.134 13.4869 86.0097 13.5196C85.8852 13.5524 85.7349 13.582 85.5514 13.6047C85.3682 13.6278 85.1425 13.6473 84.8774 13.667L84.5827 13.6866V13.9418H92.2803V13.6866L91.966 13.667C91.7337 13.6538 91.5044 13.6146 91.2787 13.5492C91.053 13.4868 90.8468 13.405 90.6569 13.307C90.4638 13.2088 90.3066 13.0974 90.179 12.9799C90.0646 12.8653 89.9533 12.7146 89.8485 12.5314C89.7405 12.3449 89.6227 12.0993 89.4885 11.7918C89.3575 11.4874 89.1938 11.098 89.0009 10.6233L84.6614 0H82.9921ZM85.3487 7.95271H81.3034L83.3064 3.12218H83.3457L85.3487 7.95271ZM91.5735 0.196498V0.451754L91.9465 0.530385C92.1854 0.585914 92.431 0.690535 92.6827 0.841181C92.9347 0.991648 93.1771 1.16503 93.4092 1.36476C93.6417 1.56449 93.8481 1.76405 94.0279 1.9636L98.564 7.01031L94.7348 11.4677C94.6694 11.5496 94.5746 11.6476 94.4567 11.7654C94.3389 11.8833 94.2079 12.0078 94.0706 12.1353C93.9299 12.263 93.799 12.3809 93.6713 12.4888C93.547 12.5969 93.442 12.682 93.3603 12.744C93.0526 12.9699 92.7189 13.1662 92.3588 13.3267C92.0022 13.4868 91.6486 13.6081 91.2984 13.6866V13.9418H99.0157V13.6866L98.5443 13.6473C98.1745 13.6146 97.8897 13.5719 97.6868 13.523C97.4872 13.4705 97.3531 13.4345 97.2875 13.4118C97.1469 13.3593 97.016 13.2939 96.8916 13.2056C96.7673 13.1205 96.6624 13.0123 96.5841 12.8749C96.5054 12.7408 96.4662 12.5738 96.463 12.3709C96.4662 12.2172 96.5087 12.0569 96.5873 11.8867C96.6659 11.7165 96.7542 11.5592 96.8556 11.4154C96.957 11.2714 97.0421 11.1568 97.1109 11.0749L99.6047 8.16873L102.295 11.1338C102.435 11.2845 102.567 11.4416 102.691 11.6019C102.815 11.7654 102.92 11.9292 102.999 12.0993C103.077 12.2663 103.116 12.4364 103.12 12.6066C103.116 12.7997 103.064 12.96 102.959 13.0877C102.858 13.2121 102.72 13.3135 102.55 13.3921C102.37 13.4804 102.161 13.546 101.929 13.5886C101.696 13.631 101.464 13.657 101.234 13.667L100.665 13.6866V13.9418H108.912V13.6866C108.696 13.6604 108.461 13.6047 108.209 13.5196C107.953 13.4345 107.685 13.3004 107.4 13.1173C107.044 12.8685 106.697 12.5706 106.366 12.2172C106.036 11.8668 105.685 11.4806 105.319 11.0554L101.136 6.38176L103.787 3.31868C103.977 3.09943 104.177 2.86693 104.386 2.61813C104.599 2.36932 104.825 2.12731 105.067 1.89158C105.306 1.65602 105.568 1.4434 105.849 1.25657C106.022 1.14551 106.212 1.03732 106.425 0.936115C106.638 0.834729 106.86 0.749641 107.093 0.674229C107.322 0.598995 107.548 0.543293 107.773 0.510513L108.166 0.451754V0.196498H100.272V0.451754L100.763 0.490991C101.123 0.520368 101.418 0.572657 101.647 0.644666C101.876 0.716854 102.053 0.805171 102.177 0.903333C102.321 1.01135 102.426 1.12921 102.485 1.26015C102.544 1.39432 102.573 1.54139 102.57 1.70834C102.567 1.90484 102.54 2.07822 102.485 2.23514C102.432 2.38919 102.367 2.52337 102.288 2.64124C102.21 2.7591 102.134 2.86047 102.059 2.94556L100.096 5.24306L97.3074 2.14038C97.2024 2.02251 97.1272 1.91792 97.0878 1.82621C97.0487 1.73467 97.029 1.64959 97.0322 1.57095C97.029 1.4203 97.065 1.27324 97.1469 1.12922C97.2255 0.985022 97.3694 0.857485 97.5822 0.746247C97.6836 0.700211 97.8014 0.65775 97.9388 0.621925C98.0764 0.58592 98.2172 0.55637 98.3578 0.533621C98.4984 0.513917 98.6261 0.497618 98.7408 0.490991L99.1923 0.451754V0.196498H91.5735Z" fill="white"/>
<path d="M0.282125 20.4137C0.366315 20.3608 0.459459 20.3126 0.561382 20.2677C0.663305 20.2233 0.770961 20.1872 0.88417 20.1602C0.998274 20.1324 1.11381 20.1188 1.23042 20.1176C1.39307 20.1176 1.5353 20.1457 1.65639 20.2007C1.77856 20.2566 1.8726 20.3374 1.94085 20.4439C2.0082 20.5516 2.04295 20.6825 2.0442 20.8373C2.04295 20.9539 2.01608 21.0625 1.96108 21.1635C1.90717 21.2642 1.83104 21.3516 1.7336 21.4279C1.63723 21.504 1.52401 21.5635 1.39397 21.6061C1.26535 21.6486 1.1251 21.6701 0.974809 21.6711H0.712573V22.115H0.981439C1.09841 22.115 1.21484 22.1229 1.33127 22.1406C1.44878 22.1575 1.56002 22.1865 1.66535 22.2268C1.7696 22.2675 1.86364 22.3212 1.9455 22.3882C2.02736 22.4555 2.09239 22.5385 2.13932 22.637C2.18751 22.7357 2.21115 22.8536 2.21222 22.9892C2.21222 23.1559 2.17192 23.3041 2.09239 23.4329C2.0116 23.5629 1.89499 23.6637 1.74165 23.7377C1.58671 23.8106 1.3997 23.8486 1.17651 23.85C1.05023 23.8486 0.924479 23.8352 0.799985 23.8094C0.674596 23.7836 0.556727 23.7499 0.447101 23.7087C0.335863 23.6671 0.2386 23.6222 0.15441 23.574L0 24.0315C0.176799 24.1345 0.36632 24.2106 0.569271 24.2579C0.771864 24.3047 0.977136 24.3285 1.18349 24.3272C1.35044 24.3272 1.51291 24.3117 1.67197 24.28C1.83229 24.2486 1.98115 24.2004 2.12051 24.1345C2.2604 24.0684 2.38257 23.9833 2.48915 23.88C2.59537 23.7757 2.67849 23.6527 2.73885 23.5081C2.7994 23.3635 2.82968 23.1975 2.83075 23.0094C2.82645 22.7905 2.77683 22.6014 2.68046 22.4401C2.58409 22.2787 2.45405 22.1487 2.28853 22.0523C2.12248 21.9559 1.9344 21.8965 1.72141 21.8726V21.8596C1.89839 21.8178 2.05638 21.7449 2.19628 21.6419C2.33671 21.5388 2.44885 21.411 2.53036 21.2584C2.61222 21.1063 2.65378 20.9371 2.6561 20.7499C2.65378 20.5156 2.5977 20.3159 2.48575 20.1512C2.37362 19.9866 2.21885 19.8598 2.01948 19.7724C1.81976 19.6851 1.58904 19.6413 1.32447 19.6404C1.07691 19.6413 0.853718 19.6741 0.655424 19.7353C0.458384 19.7984 0.282123 19.8799 0.127716 19.9832L0.282125 20.4137ZM3.92683 19.7208V21.6308C3.92809 21.8134 3.9245 22.0018 3.91554 22.1946C3.90766 22.3873 3.89082 22.5734 3.86503 22.7536C3.83834 22.9342 3.79893 23.0968 3.74519 23.2424C3.69146 23.3879 3.6198 23.5047 3.53006 23.5942C3.47399 23.6492 3.40467 23.6994 3.31941 23.7456C3.23396 23.7906 3.14548 23.8207 3.05251 23.8364L3.12649 24.307C3.21516 24.3061 3.30131 24.2959 3.38783 24.2748C3.47292 24.2543 3.55353 24.2275 3.62876 24.1949C3.70364 24.1624 3.76866 24.1288 3.8258 24.0919C3.95155 24.0045 4.0558 23.8936 4.13963 23.7601C4.22275 23.6256 4.28884 23.4744 4.33792 23.3064C4.38754 23.1371 4.42444 22.9575 4.44791 22.767C4.47263 22.5754 4.48821 22.3807 4.49502 22.18C4.5029 21.9792 4.5063 21.7809 4.50505 21.5835V20.212H5.99808V24.2533H6.58973V19.7208H3.92683ZM9.94532 22.8278L10.4295 24.2533H11.0548L9.50826 19.7208H8.80894L7.26218 24.2533H7.86745L8.33802 22.8278H9.94532ZM8.45911 22.3704L8.90298 21.0592C8.94991 20.9202 8.99148 20.7823 9.02748 20.6433C9.06438 20.5054 9.09913 20.3698 9.13173 20.2387H9.14499C9.17759 20.3687 9.21359 20.5034 9.25049 20.6401C9.28757 20.7766 9.3311 20.9179 9.38018 21.0657L9.83104 22.3704H8.45911ZM12.581 24.2533H13.1727V20.2186H14.5582V19.7208H11.2028V20.2186H12.581V24.2533ZM16.8912 19.6404C16.5875 19.6413 16.3074 19.6975 16.053 19.8096C15.7974 19.9216 15.5767 20.0819 15.3887 20.2902C15.2002 20.4998 15.0546 20.7499 14.9512 21.0413C14.847 21.3338 14.7945 21.6599 14.7932 22.021C14.7945 22.3647 14.8437 22.6773 14.9424 22.9598C15.0411 23.2414 15.18 23.4843 15.3605 23.6887C15.5411 23.8925 15.7562 24.0492 16.0048 24.1601C16.2536 24.2701 16.5283 24.3262 16.8308 24.3272C17.0629 24.3272 17.2847 24.2936 17.4943 24.2275C17.7039 24.1624 17.8968 24.0637 18.0714 23.9339C18.2464 23.8038 18.3989 23.6437 18.5275 23.4509C18.6566 23.2593 18.7577 23.0373 18.8279 22.785C18.8985 22.5327 18.9345 22.2506 18.9355 21.94C18.9345 21.6004 18.8863 21.2912 18.791 21.0111C18.6959 20.7298 18.5588 20.4875 18.3797 20.2836C18.2015 20.0787 17.9863 19.9205 17.7354 19.8096C17.4853 19.6984 17.2032 19.6413 16.8912 19.6404ZM16.8711 20.1176C17.0662 20.1188 17.241 20.1536 17.3959 20.2232C17.5516 20.2915 17.686 20.3866 17.8015 20.5066C17.917 20.6275 18.0134 20.7667 18.0895 20.9235C18.1658 21.0804 18.223 21.2486 18.261 21.4255C18.2978 21.6038 18.317 21.7843 18.317 21.9671C18.317 22.2259 18.2846 22.4692 18.2206 22.6956C18.1565 22.922 18.0625 23.1212 17.9394 23.2939C17.8149 23.4665 17.6636 23.6021 17.483 23.7008C17.3028 23.7981 17.0964 23.8477 16.8645 23.85C16.6784 23.8486 16.5094 23.8164 16.3568 23.7522C16.2044 23.6872 16.0699 23.5975 15.9524 23.4823C15.8345 23.3668 15.7358 23.2312 15.6563 23.0776C15.5756 22.9229 15.5149 22.7549 15.4737 22.5734C15.4334 22.3919 15.4119 22.2033 15.4119 22.0074C15.4119 21.8091 15.4311 21.6163 15.4705 21.4311C15.5083 21.2463 15.5669 21.0738 15.645 20.9147C15.7225 20.7565 15.82 20.6175 15.9364 20.4978C16.053 20.3789 16.1899 20.2859 16.3457 20.2195C16.5014 20.1525 16.676 20.1188 16.8711 20.1176ZM19.1978 19.7208L20.7041 22.7873C20.7309 22.8401 20.7478 22.886 20.7523 22.9275C20.7566 22.9687 20.7478 23.0137 20.7243 23.0631C20.6874 23.145 20.6425 23.2312 20.5887 23.3196C20.5348 23.4094 20.4721 23.4922 20.3992 23.5708C20.3263 23.6492 20.2434 23.7119 20.1504 23.7612C20.0572 23.8094 19.9519 23.8352 19.8366 23.8364C19.7864 23.8364 19.7438 23.8352 19.7078 23.8318C19.6718 23.8285 19.6415 23.8228 19.6146 23.8164L19.5609 24.2936C19.598 24.307 19.6427 24.3172 19.6952 24.3238C19.749 24.3305 19.814 24.3339 19.8903 24.3339C20.0909 24.3339 20.2761 24.2869 20.4442 24.1938C20.612 24.0997 20.7691 23.9609 20.9124 23.7757C20.9932 23.6704 21.0718 23.5516 21.1467 23.4173C21.223 23.2826 21.2959 23.1403 21.3665 22.9892C21.4372 22.8378 21.5055 22.683 21.5705 22.5261C21.6364 22.3681 21.6993 22.2137 21.76 22.0611L22.7148 19.7208H22.0959L21.3833 21.6443C21.3296 21.8044 21.2801 21.9522 21.2352 22.0869C21.1906 22.2202 21.1478 22.3446 21.1075 22.4579H21.0874C21.0369 22.3269 20.9853 22.1954 20.9316 22.0634C20.8778 21.9321 20.8216 21.7989 20.7646 21.6645L19.8636 19.7208H19.1978ZM26.2448 23.6414C26.1653 23.6793 26.0745 23.713 25.9715 23.7411C25.8683 23.7691 25.7587 23.7906 25.6419 23.806C25.5244 23.8219 25.4054 23.8294 25.2835 23.8294C24.9168 23.8275 24.6042 23.7533 24.3464 23.6054C24.0887 23.4576 23.8913 23.248 23.7546 22.9757C23.6181 22.7043 23.5493 22.3816 23.5484 22.0074C23.5493 21.7089 23.592 21.4447 23.6751 21.2126C23.7589 20.9819 23.8791 20.7855 24.0335 20.6265C24.1893 20.4662 24.3755 20.3452 24.592 20.2621C24.8091 20.1794 25.0501 20.138 25.3171 20.138C25.5065 20.1391 25.6777 20.1568 25.8312 20.1919C25.9851 20.2265 26.116 20.2714 26.2246 20.3261L26.3725 19.8485C26.321 19.8206 26.2461 19.7916 26.1485 19.7602C26.051 19.7298 25.9314 19.7031 25.79 19.6816C25.6474 19.6592 25.4828 19.6482 25.2965 19.647C24.9438 19.6482 24.6234 19.7054 24.3339 19.8186C24.0448 19.9318 23.796 20.0932 23.5864 20.3028C23.3768 20.5124 23.2154 20.7631 23.1022 21.0535C22.9879 21.3449 22.931 21.6701 22.9295 22.0274C22.9319 22.4007 22.9879 22.7301 23.0988 23.0169C23.2099 23.3028 23.3655 23.5427 23.5676 23.7368C23.7682 23.9315 24.0036 24.0784 24.2744 24.178C24.5447 24.2767 24.8405 24.3272 25.1624 24.3272C25.347 24.3262 25.5165 24.316 25.6713 24.2959C25.8257 24.2748 25.9627 24.2477 26.0791 24.2153C26.1956 24.1827 26.2887 24.149 26.3593 24.1119L26.2448 23.6414ZM27.9593 24.2533H28.5511V20.2186H29.9367V19.7208H26.5811V20.2186H27.9593V24.2533ZM32.2696 19.6404C31.966 19.6413 31.6858 19.6975 31.4313 19.8096C31.1758 19.9216 30.9552 20.0819 30.7669 20.2902C30.5785 20.4998 30.433 20.7499 30.3296 21.0413C30.2254 21.3338 30.1729 21.6599 30.1717 22.021C30.1729 22.3647 30.222 22.6773 30.3207 22.9598C30.4194 23.2414 30.5584 23.4843 30.739 23.6887C30.9195 23.8925 31.1347 24.0492 31.3831 24.1601C31.6319 24.2701 31.9065 24.3262 32.2092 24.3272C32.4412 24.3272 32.663 24.2936 32.8725 24.2275C33.0821 24.1624 33.2752 24.0637 33.4499 23.9339C33.6247 23.8038 33.7773 23.6437 33.9059 23.4509C34.0351 23.2593 34.1359 23.0373 34.2063 22.785C34.2769 22.5327 34.3129 22.2506 34.3138 21.94C34.3129 21.6004 34.2647 21.2912 34.1693 21.0111C34.0743 20.7298 33.9373 20.4875 33.7582 20.2836C33.5799 20.0787 33.3646 19.9205 33.1138 19.8096C32.8638 19.6984 32.5815 19.6413 32.2696 19.6404ZM32.2495 20.1176C32.4446 20.1188 32.6194 20.1536 32.7742 20.2232C32.93 20.2915 33.0644 20.3866 33.1799 20.5066C33.2955 20.6275 33.3918 20.7667 33.468 20.9235C33.5443 21.0804 33.6014 21.2486 33.6392 21.4255C33.6763 21.6038 33.6955 21.7843 33.6955 21.9671C33.6955 22.2259 33.663 22.4692 33.5991 22.6956C33.535 22.922 33.4409 23.1212 33.3179 23.2939C33.1934 23.4665 33.042 23.6021 32.8614 23.7008C32.6812 23.7981 32.4749 23.8477 32.2429 23.85C32.0568 23.8486 31.8877 23.8164 31.7353 23.7522C31.5828 23.6872 31.4481 23.5975 31.3306 23.4823C31.2129 23.3668 31.1142 23.2312 31.0347 23.0776C30.9541 22.9229 30.8934 22.7549 30.8522 22.5734C30.8119 22.3919 30.7904 22.2033 30.7904 22.0074C30.7904 21.8091 30.8095 21.6163 30.8488 21.4311C30.8867 21.2463 30.9451 21.0738 31.0234 20.9147C31.101 20.7565 31.1982 20.6175 31.3148 20.4978C31.4313 20.3789 31.5683 20.2859 31.7242 20.2195C31.8798 20.1525 32.0545 20.1188 32.2495 20.1176ZM35.0737 24.2396C35.1713 24.2533 35.2967 24.2654 35.4491 24.2767C35.6017 24.2869 35.78 24.2925 35.9815 24.2936C36.3516 24.2936 36.6654 24.2599 36.9231 24.1906C37.1818 24.1209 37.3882 24.0147 37.5417 23.8701C37.6604 23.7625 37.7559 23.6335 37.8251 23.4823C37.8947 23.3308 37.9304 23.1572 37.9318 22.9621C37.9304 22.7941 37.9014 22.645 37.8465 22.5159C37.7905 22.3873 37.7176 22.275 37.6259 22.1833C37.5338 22.0901 37.434 22.0152 37.3242 21.9568C37.2155 21.8984 37.1057 21.8573 36.9971 21.8325V21.8123C37.1551 21.7552 37.2905 21.6767 37.405 21.578C37.5191 21.4793 37.6076 21.3652 37.6694 21.2351C37.731 21.1051 37.7624 20.9661 37.7634 20.8169C37.7624 20.6387 37.7278 20.4819 37.6604 20.3486C37.5922 20.2152 37.499 20.1043 37.3803 20.0169C37.2895 19.9406 37.1852 19.8779 37.0677 19.8297C36.9498 19.7815 36.8142 19.7457 36.6631 19.7222C36.5106 19.6984 36.337 19.6871 36.1429 19.6871C36.0073 19.6871 35.874 19.6918 35.7429 19.6997C35.6116 19.7086 35.4894 19.7199 35.3753 19.7353C35.2598 19.7502 35.16 19.7681 35.0737 19.7882V24.2396ZM35.6587 20.1783C35.7047 20.167 35.7687 20.1582 35.8514 20.1502C35.9344 20.1423 36.0433 20.138 36.1765 20.138C36.375 20.1367 36.5486 20.1625 36.6955 20.213C36.8436 20.2634 36.9588 20.3429 37.0407 20.4529C37.1225 20.5614 37.1641 20.7028 37.165 20.8776C37.165 21.0245 37.1257 21.1556 37.0485 21.271C36.9713 21.3852 36.8601 21.4761 36.7146 21.542C36.5701 21.6093 36.3951 21.643 36.1902 21.6443H35.6587V20.1783ZM35.6587 22.0813H36.1429C36.3043 22.0813 36.4546 22.0982 36.5957 22.1319C36.736 22.1655 36.8601 22.218 36.9677 22.2886C37.0752 22.3592 37.1594 22.45 37.2201 22.5609C37.2805 22.6707 37.3119 22.803 37.3129 22.9555C37.3119 23.1188 37.2792 23.2582 37.2165 23.3711C37.1539 23.4843 37.0677 23.5754 36.9588 23.6437C36.8488 23.7119 36.7258 23.7612 36.5868 23.7915C36.4479 23.8219 36.3019 23.8375 36.1495 23.8364C36.0456 23.8364 35.9524 23.8341 35.8717 23.8309C35.7898 23.8262 35.7192 23.8196 35.6587 23.8094V22.0813ZM41.7644 23.6414C41.6849 23.6793 41.5941 23.713 41.4913 23.7411C41.3879 23.7691 41.2783 23.7906 41.1615 23.806C41.044 23.8219 40.9252 23.8294 40.803 23.8294C40.4364 23.8275 40.1238 23.7533 39.866 23.6054C39.6083 23.4576 39.4109 23.248 39.2744 22.9757C39.1377 22.7043 39.0691 22.3816 39.068 22.0074C39.0691 21.7089 39.1115 21.4447 39.1948 21.2126C39.2787 20.9819 39.3987 20.7855 39.5533 20.6265C39.7089 20.4662 39.895 20.3452 40.1116 20.2621C40.3287 20.1794 40.5696 20.138 40.8367 20.138C41.0262 20.1391 41.1975 20.1568 41.351 20.1919C41.5047 20.2265 41.6358 20.2714 41.7444 20.3261L41.8921 19.8485C41.8407 19.8206 41.7659 19.7916 41.6681 19.7602C41.5708 19.7298 41.4509 19.7031 41.3096 19.6816C41.167 19.6592 41.0024 19.6482 40.8163 19.647C40.4634 19.6482 40.143 19.7054 39.8535 19.8186C39.5644 19.9318 39.3156 20.0932 39.106 20.3028C38.8964 20.5124 38.735 20.7631 38.6218 21.0535C38.5077 21.3449 38.4506 21.6701 38.4493 22.0274C38.4515 22.4007 38.5077 22.7301 38.6186 23.0169C38.7295 23.3028 38.8851 23.5427 39.0872 23.7368C39.2878 23.9315 39.5232 24.0784 39.7942 24.178C40.0645 24.2767 40.3601 24.3272 40.6819 24.3272C40.8668 24.3262 41.0361 24.316 41.1908 24.2959C41.3453 24.2748 41.4823 24.2477 41.5987 24.2153C41.7153 24.1827 41.8083 24.149 41.8789 24.1119L41.7644 23.6414ZM42.6183 19.7208V24.2533H43.2034V22.1754H43.3918C43.5822 22.1754 43.7459 22.2001 43.8826 22.2483C44.0182 22.2976 44.1348 22.3658 44.2301 22.4555C44.3252 22.544 44.406 22.6506 44.4721 22.774C44.5395 22.8971 44.5979 23.0338 44.6493 23.1839C44.6919 23.3041 44.7345 23.4262 44.777 23.5505C44.8196 23.6761 44.8644 23.7981 44.9113 23.9183C44.9586 24.037 45.01 24.149 45.0661 24.2533H45.6916C45.6275 24.1189 45.5682 23.9821 45.5143 23.8443C45.4605 23.7051 45.4091 23.5641 45.3575 23.4183C45.3061 23.2727 45.251 23.1235 45.1938 22.9687C45.1378 22.8152 45.0751 22.673 45.0045 22.5421C44.9352 22.4107 44.8519 22.2942 44.7546 22.1922C44.6582 22.0901 44.5427 22.005 44.4071 21.9377C44.2715 21.8703 44.1101 21.8245 43.9229 21.7989L45.6377 19.7208H44.9384L43.385 21.7315H43.2034V19.7208H42.6183ZM46.2628 19.7208V24.2533H46.8882L48.307 21.9938C48.4641 21.744 48.6144 21.4906 48.7599 21.2341C48.9059 20.9774 49.0357 20.7243 49.1477 20.474L49.1678 20.481C49.1523 20.6704 49.1411 20.8595 49.1332 21.0489C49.1253 21.2396 49.121 21.439 49.1176 21.6462C49.1153 21.8549 49.114 22.0799 49.114 22.3232V24.2533H49.6655V19.7208H49.0807L47.6147 22.0543C47.4499 22.3223 47.2975 22.5809 47.1572 22.8297C47.0173 23.0777 46.8919 23.3196 46.7807 23.5539L46.7605 23.5473C46.7741 23.3467 46.7843 23.1437 46.7918 22.9397C46.7999 22.7357 46.8054 22.5261 46.8101 22.3101C46.8133 22.0935 46.8144 21.8671 46.8144 21.6308V19.7208H46.2628ZM53.0279 21.6443H51.2728V20.212H53.1356V19.7208H50.681V24.2533H53.2364V23.7624H51.2728V22.1284H53.0279V21.6443ZM91.0504 19.7208V24.2533H91.6422V22.1284H93.8344V24.2533H94.426V19.7208H93.8344V21.6172H91.6422V19.7208H91.0504ZM97.2704 19.6404C96.9666 19.6413 96.6864 19.6975 96.4321 19.8096C96.1767 19.9216 95.9558 20.0819 95.7677 20.2902C95.5793 20.4998 95.4336 20.7499 95.3305 21.0413C95.226 21.3338 95.1735 21.6599 95.1723 22.021C95.1735 22.3647 95.2228 22.6773 95.3215 22.9598C95.4202 23.2414 95.559 23.4843 95.7396 23.6887C95.9201 23.8925 96.1353 24.0492 96.3839 24.1601C96.6327 24.2701 96.9073 24.3262 97.2099 24.3272C97.442 24.3272 97.6638 24.2936 97.8733 24.2275C98.0829 24.1624 98.276 24.0637 98.4505 23.9339C98.6255 23.8038 98.7779 23.6437 98.9067 23.4509C99.0357 23.2593 99.1367 23.0373 99.207 22.785C99.2775 22.5327 99.3135 22.2506 99.3146 21.94C99.3135 21.6004 99.2654 21.2912 99.1701 21.0111C99.0749 20.7298 98.9381 20.4875 98.7588 20.2836C98.5805 20.0787 98.3654 19.9205 98.1146 19.8096C97.8644 19.6984 97.5823 19.6413 97.2704 19.6404ZM97.2502 20.1176C97.4452 20.1188 97.6202 20.1536 97.775 20.2232C97.9307 20.2915 98.065 20.3866 98.1806 20.5066C98.2961 20.6275 98.3925 20.7667 98.4688 20.9235C98.5449 21.0804 98.602 21.2486 98.64 21.4255C98.6769 21.6038 98.6961 21.7843 98.6961 21.9671C98.6961 22.2259 98.6637 22.4692 98.5997 22.6956C98.5358 22.922 98.4416 23.1212 98.3185 23.2939C98.1942 23.4665 98.0426 23.6021 97.8621 23.7008C97.6819 23.7981 97.4757 23.8477 97.2435 23.85C97.0574 23.8486 96.8885 23.8164 96.7361 23.7522C96.5835 23.6872 96.4489 23.5975 96.3314 23.4823C96.2136 23.3668 96.1149 23.2312 96.0353 23.0776C95.9547 22.9229 95.894 22.7549 95.8528 22.5734C95.8125 22.3919 95.7912 22.2033 95.7912 22.0074C95.7912 21.8091 95.8102 21.6163 95.8496 21.4311C95.8876 21.2463 95.9459 21.0738 96.024 20.9147C96.1016 20.7565 96.1991 20.6175 96.3155 20.4978C96.4321 20.3789 96.5689 20.2859 96.7248 20.2195C96.8806 20.1525 97.0551 20.1188 97.2502 20.1176ZM99.7112 19.7208L101.312 21.8057C101.136 21.8279 100.985 21.8703 100.855 21.9345C100.728 21.9984 100.617 22.0799 100.524 22.1809C100.432 22.282 100.351 22.3995 100.282 22.5327C100.214 22.6664 100.151 22.8143 100.095 22.9757C100.047 23.1169 99.9994 23.2593 99.9536 23.4028C99.9086 23.5461 99.8604 23.6886 99.8099 23.8309C99.7594 23.9731 99.7013 24.1143 99.6374 24.2533H100.236C100.285 24.1513 100.33 24.0381 100.373 23.9147C100.414 23.7915 100.455 23.6681 100.493 23.5427C100.531 23.4173 100.568 23.2994 100.606 23.1909C100.658 23.035 100.716 22.8962 100.776 22.7704C100.838 22.6459 100.911 22.5397 100.996 22.4512C101.081 22.3626 101.186 22.2941 101.312 22.247C101.436 22.2001 101.588 22.1754 101.769 22.1754H101.978V24.2533H102.542V22.1754H102.744C102.925 22.1754 103.077 22.2001 103.202 22.247C103.327 22.2941 103.432 22.3626 103.517 22.4512C103.603 22.5397 103.675 22.6459 103.737 22.7704C103.797 22.8962 103.855 23.035 103.907 23.1909C103.943 23.2994 103.979 23.4173 104.017 23.5427C104.054 23.6681 104.094 23.7915 104.136 23.9147C104.179 24.0381 104.226 24.1513 104.277 24.2533H104.876C104.814 24.1143 104.758 23.9731 104.71 23.8309C104.662 23.6886 104.615 23.545 104.571 23.4004C104.527 23.2559 104.48 23.1124 104.432 22.9687C104.376 22.8064 104.313 22.6585 104.244 22.5238C104.174 22.3896 104.092 22.2718 103.998 22.1698C103.904 22.0692 103.792 21.9873 103.662 21.9243C103.532 21.8628 103.378 21.8221 103.201 21.8057L104.808 19.7208H104.13L102.724 21.7315H102.542V19.7208H101.978V21.7315H101.796L100.39 19.7208H99.7112ZM105.46 19.7208V24.2533H106.086L107.505 21.9938C107.662 21.744 107.812 21.4906 107.957 21.2341C108.103 20.9774 108.234 20.7243 108.345 20.474L108.366 20.481C108.35 20.6704 108.339 20.8595 108.331 21.0489C108.323 21.2396 108.319 21.439 108.315 21.6462C108.313 21.8549 108.312 22.0799 108.312 22.3232V24.2533H108.863V19.7208H108.278L106.812 22.0543C106.648 22.3223 106.495 22.5809 106.355 22.8297C106.215 23.0777 106.09 23.3196 105.978 23.5539L105.958 23.5473C105.972 23.3467 105.982 23.1437 105.99 22.9397C105.997 22.7357 106.003 22.5261 106.008 22.3101C106.011 22.0935 106.012 21.8671 106.012 21.6308V19.7208H105.46Z" fill="white"/>
</svg>
