<svg width="17" height="23" viewBox="0 0 17 23" fill="none" xmlns="http://www.w3.org/2000/svg">
<path d="M1 9.16667H2.15385V1H10.8077C13.6923 1 16 3.33333 16 6.25C16 9.16667 13.6923 11.5 10.8077 11.5H4.46154V13.8333H11.3846V16.1667H4.46154V22H2.15385V16.1667H1V13.8333H2.15385V11.5H1V9.16667ZM10.8077 3.33333H4.46154V9.16667H10.8077C11.5727 9.16667 12.3065 8.85938 12.8474 8.31239C13.3884 7.76541 13.6923 7.02355 13.6923 6.25C13.6923 5.47645 13.3884 4.73459 12.8474 4.18761C12.3065 3.64062 11.5727 3.33333 10.8077 3.33333Z" fill="black" stroke="black"/>
</svg>
